<svg width="100" height="100" viewBox="0 0 100 100" fill="none" xmlns="http://www.w3.org/2000/svg">
<g clip-path="url(#clip0_651_67)">
<path d="M71.9744 37.4598C69.6515 38.0073 68.5321 39.4859 69.4829 40.8673C74.5643 47.9075 80.9993 55.1369 86.9566 64.1213C88.0853 65.8916 92.0194 65.2879 95.5319 62.1618C99.0304 59.0356 100.81 55.229 99.6439 54.2058C93.5134 48.4959 85.3877 43.6865 78.6014 38.2682C77.262 37.2603 74.2927 36.9175 71.9744 37.4598Z" fill="#BFBFBF"/>
<path d="M68.4857 33.1471C70.5792 32.5894 70.8509 31.1619 69.4084 29.9544C61.4279 23.0934 55.2879 16.4983 43.9681 16.6774C36.4419 16.4676 31.7726 19.6961 26.3258 23.9887C20.9961 28.3223 14.8889 33.7201 7.12385 38.7956C0.0753366 43.7687 -2.31788 50.0977 2.57627 60.0695C7.32524 69.2995 19.3569 82.1673 37.8282 83.2059C50.7076 84.1882 60.6551 79.3021 66.1815 74.2368C71.8203 69.0079 73.0427 63.5896 71.0757 59.7216C68.3921 54.3545 65.849 49.5298 63.6384 44.9659C62.4254 42.4589 61.3061 40.0337 60.3226 37.6393C57.4563 31.6122 51.6817 27.4832 44.7924 27.4372C39.3409 27.4679 34.9292 29.7805 31.81 33.2801C30.4144 34.8457 30.7048 36.7848 32.9294 37.5062C34.6435 38.0588 36.6339 37.3988 37.3739 36.0685C38.8258 33.5973 41.5796 32.0522 44.9236 32.0163C48.9185 31.9959 52.0938 33.8275 52.7682 36.7183C53.1476 38.3709 50.8668 40.2435 46.9702 40.8626C44.8018 41.2054 42.6006 41.4868 40.3572 41.6863C32.9013 42.5203 25.5671 45.4162 23.0615 50.4098C20.2233 55.7411 27.0939 64.0245 40.1886 64.7459C45.7385 64.9711 50.7684 63.784 54.6838 61.8756C56.7164 60.9035 59.1236 61.0621 59.9292 62.9757C61.9899 67.8874 54.0375 76.2629 38.9148 75.6643C26.2181 75.081 17.2587 67.3195 13.6947 60.4379C9.95731 53.2136 11.6152 46.8641 16.0504 41.2668C26.0588 30.2256 32.9809 21.4868 44.0993 21.3435C52.8198 21.3231 58.6272 25.8153 63.4932 31.7861C64.4252 33.0243 66.6358 33.6331 68.4904 33.1471H68.4857ZM42.4414 58.5858C35.9876 58.4937 32.1191 55.1783 32.8966 51.9908C33.5569 49.1819 37.772 47.1916 42.7832 46.3627C44.3897 46.112 45.9726 45.8255 47.5322 45.498C48.3659 45.319 49.1948 45.099 49.9816 44.8483C52.2437 44.1422 54.946 45.1297 55.4893 46.992C55.494 47.0125 55.4987 47.0279 55.5034 47.0483C57.269 52.4359 51.9721 58.5858 42.4414 58.5858Z" fill="#BFBFBF"/>
</g>
<defs>
<clipPath id="clip0_651_67">
<rect width="99.9999" height="66.6666" fill="white" transform="translate(0 16.6667)"/>
</clipPath>
</defs>
</svg>
